# xmcd
#
# Track frame offsets: 
#        150
#        9130
#        20154
#        29241
#        38784
#        48120
#        49183
#        58111
#        60013
#        68746
#        71857
#        81126
#        90485
#        99328
#        113746
#        127349
#        129988
#        133754
#        138273
#        144108
#        145542
#        147550
#        160489
#        172306
#        181705
#        191442
#        201274
#        210681
#        212559
#        221842
#        235522
#        237728
#        251628
#        260170
#        265132
#        266840
#        269894
#        272721
#        282550
#        291110
#        293066
#
# Disc length: 4079 seconds
#
# Revision: 0
# Processed by: cddbd v1.5.2PL0 Copyright (c) Steve Scherf et al.
# Submitted via: ExactAudioCopy v0.95b3
#
DISCID=8e0fed29
DTITLE=The Beatles  - Please Please Me - Deluxe Edition - Disc 2  FLAC
DYEAR=1900
DGENRE=
TTITLE0=How Do You Do It
TTITLE1=Love Me Do
TTITLE2=Please Please Me
TTITLE3=There's A Place - take 1
TTITLE4=There's A Place - take 2
TTITLE5=There's A Place - take 3
TTITLE6=There's A Place - take 4
TTITLE7=There's A Place - take 5
TTITLE8=There's A Place - take 6
TTITLE9=There's A Place - take 7
TTITLE10=There's A Place - take 8
TTITLE11=There's A Place - take 9
TTITLE12=There's A Place - take 10
TTITLE13=I Saw Her Standing There - take 1
TTITLE14=I Saw Her Standing There - take 2
TTITLE15=I Saw Her Standing There - take 3
TTITLE16=I Saw Her Standing There - take 4
TTITLE17=I Saw Her Standing There - take 5
TTITLE18=I Saw Her Standing There - take 6
TTITLE19=I Saw Her Standing There - take 7
TTITLE20=I Saw Her Standing There - take 8
TTITLE21=I Saw Her Standing There - take 9
TTITLE22=Do You Want To Know A Secret - take 7
TTITLE23=Do You Want To Know A Secret - take 8
TTITLE24=A Taste Of Honey - take 6
TTITLE25=A Taste Of Honey - take 7
TTITLE26=There's A Place - take 11
TTITLE27=There's A Place - take 12
TTITLE28=There's A Place - take 13
TTITLE29=I Saw Her Standing There - take 10
TTITLE30=I Saw Her Standing There - take 11
TTITLE31=I Saw Her Standing There - take 12
TTITLE32=Misery - take 1
TTITLE33=Misery - take 2
TTITLE34=Misery - take 3
TTITLE35=Misery - take 4
TTITLE36=Misery - take 5
TTITLE37=Misery - take 6
TTITLE38=Misery - take 7
TTITLE39=Misery - take 8
TTITLE40=I Saw Her Standing There - take 9 - ant mix  bonus
EXTD=
EXTT0=
EXTT1=
EXTT2=
EXTT3=
EXTT4=
EXTT5=
EXTT6=
EXTT7=
EXTT8=
EXTT9=
EXTT10=
EXTT11=
EXTT12=
EXTT13=
EXTT14=
EXTT15=
EXTT16=
EXTT17=
EXTT18=
EXTT19=
EXTT20=
EXTT21=
EXTT22=
EXTT23=
EXTT24=
EXTT25=
EXTT26=
EXTT27=
EXTT28=
EXTT29=
EXTT30=
EXTT31=
EXTT32=
EXTT33=
EXTT34=
EXTT35=
EXTT36=
EXTT37=
EXTT38=
EXTT39=
EXTT40=
PLAYORDER=
